# xmcd
#
# Track frame offsets:
#	150
#	12639
#	27607
#	41700
#	56021
#	71810
#	83283
#	97492
#	112471
#	126908
#	140057
#	154976
#	170570
#	186978
#
# Disc length: 2660 seconds
#
# Revision: 0
# Processed by: cddbd v1.5.1PL0 Copyright (c) Steve Scherf et al.
# Submitted via: EasyCDDAExtractor 8.0.2.1
#
DISCID=de0a620e
DTITLE=Truck Stop - Asphaltfieber CD-2
DYEAR=2004
DGENRE=Country
TTITLE0=Der wilde, wilde Westen
TTITLE1=Easy Rider
TTITLE2=Das gibt's doch nur in Dallas
TTITLE3=Der König der Autobahn
TTITLE4=Ich rauch' zuviel
TTITLE5=Lass die Mädels wissen
TTITLE6=Angeln entspannt
TTITLE7=Country New Wave
TTITLE8=Der Tramp
TTITLE9=Die Frau mit dem Gurt
TTITLE10=Black Jack
TTITLE11=Jeden Tag in einer andern Stadt
TTITLE12=Die Sonne steht tief
TTITLE13=Wieder mal zu spät
EXTD=
EXTT0=
EXTT1=
EXTT2=
EXTT3=
EXTT4=
EXTT5=
EXTT6=
EXTT7=
EXTT8=
EXTT9=
EXTT10=
EXTT11=
EXTT12=
EXTT13=
PLAYORDER=
